inDegrees=yes
name=ik_MT_012005D6_009-001_orientations
DataType=double
version=3
OpenSimVersion=4.2-2021-01-13-642235af4
endheader
time	pelvis_tilt	pelvis_list	pelvis_rotation	pelvis_tx	pelvis_ty	pelvis_tz	hip_flexion_r	hip_adduction_r	hip_rotation_r	knee_angle_r	knee_angle_r_beta	ankle_angle_r	subtalar_angle_r	mtp_angle_r	hip_flexion_l	hip_adduction_l	hip_rotation_l	knee_angle_l	knee_angle_l_beta	ankle_angle_l	subtalar_angle_l	mtp_angle_l	lumbar_extension	lumbar_bending	lumbar_rotation	arm_flex_r	arm_add_r	arm_rot_r	elbow_flex_r	pro_sup_r	wrist_flex_r	wrist_dev_r	arm_flex_l	arm_add_l	arm_rot_l	elbow_flex_l	pro_sup_l	wrist_flex_l	wrist_dev_l
9.189999999999849	317.8778725359907	98.02363974821321	-85.26111783177819	0	0.9399999999999999	0	7.361551633792121	-0.2627886931461568	-25.82239182022698	0.06209995500998164	0.001083848680264528	3.999018447729947	1.508659379216363e-34	0	26.56189023335338	-4.427471359450056	-24.91472251504978	0.1371043991287816	0.002392923183765684	7.098101505296631	0	0	-23.90981490359487	5.982514586665037	-0.6149215755709297	0	-9.937359774864351	0	67.64531209289143	44.81221924726673	0	0	0	-9.937359774864351	0	67.64531209289143	44.81221924726673	0	0
9.199999999999848	323.634430422904	97.85765693586676	-90.49457244464016	0	0.9399999999999999	0	6.902324944869892	0.4638182471643936	-25.8457741658453	0.06467230173179156	0.001128744600062993	4.299823666903808	0	0	26.4377311071552	-5.175554732213757	-25.67103419710867	0.1300039634597704	0.002268997203015392	7.28011515932862	0	0	-23.90942294374795	6.46811587236931	-0.3237019551701094	0	-9.966286966553799	0	67.72809247112053	44.81798838250921	0	0	0	-9.966286966553799	0	67.72809247112053	44.81798838250921	0	0
9.209999999999848	324.2526401410854	97.73228650468934	-90.52471081388479	0	0.9399999999999999	0	6.489902540977063	0.4435553252453268	-25.903938003503	0.06723817807676533	0.001173527590481824	4.57403014219171	0	0	26.29479086344952	-5.162790833153434	-26.62213926885196	0.1248817393353061	0.002179597527018407	7.350684615946298	0	0	-23.84756278315935	6.38332625685111	-0.4348518529479791	0	-9.96885199891687	0	67.73540334828891	44.81849122428561	0	0	0	-9.96885199891687	0	67.73540334828891	44.81849122428561	0	0
9.219999999999848	324.7202553708549	97.73154400700994	-90.28494652363611	0	0.9399999999999999	0	6.202302455321689	0.3894768808780427	-26.15830563127455	0.07013614712764683	0.001224106692040601	4.693059867127714	1.710711974647126e-34	0	26.27967459290581	-5.044591875582182	-27.40555617042738	0.1247792037432218	0.002177807943336053	7.347957226787371	2.694034605743505e-35	0	-23.67521111823231	6.331449229119537	-0.6295345089138278	0	-9.969182183097585	0	67.73634196606127	44.81855550834091	0	0	0	-9.969182183097585	0	67.73634196606127	44.81855550834091	0	0
9.229999999999848	332.4398673526927	97.6212795095167	-97.44406814225007	0	0.9399999999999999	0	5.671574186246647	1.326096040487768	-26.26375488015534	0.07264419724293802	0.001267880424357456	5.001521784547045	0	0	26.01823842236499	-5.890317407855028	-27.88523314062737	0.1204793739522937	0.002102761756209019	7.243092139265305	0	0	-23.65017561095742	7.037740682724939	-0.2774256731094287	0	-10.00066616011769	0	67.82591406925563	44.82467486036297	0	0	0	-10.00066616011769	0	67.82591406925563	44.82467486036297	0	0
9.239999999999847	332.8373736242802	97.62535973202139	-97.22845338778269	0	0.9399999999999999	0	5.374254275946109	1.253414980202461	-26.44304278988936	0.0748962037859662	0.001307185353309753	5.145075100159062	0	0	25.86174982855255	-5.781680229812128	-28.58607591623217	0.1211096945485625	0.002113762925957043	7.149913668521131	0	0	-23.37764953927576	6.934930649996326	-0.4280758747056209	0	-10.00116590328984	0	67.82732704723925	44.82476966465274	0	0	0	-10.00116590328984	0	67.82732704723925	44.82476966465274	0	0
9.249999999999847	337.5331122288931	97.49656844743461	-101.456011043819	0	0.9399999999999999	0	4.810871853399215	1.75200612983136	-26.51620554546468	0.07777301003129666	0.001357395094232705	5.369526532078738	0	0	25.43451031215804	-6.238647629487917	-29.13609340506278	0.1248192876203787	0.002178507538969407	6.984962411880173	0	0	-23.39509380789701	7.220888211927479	-0.1784037665304785	0	-10.03349521964687	0	67.91866605282198	44.83086279875673	0	0	0	-10.03349521964687	0	67.91866605282198	44.83086279875673	0	0
9.259999999999847	339.7895253100008	97.4239455931651	-103.2531214114412	0	0.9399999999999999	0	4.360297088618568	1.91895903710995	-26.61017830350028	0.08145770555701326	0.001421705163089963	5.528149646082368	0	0	24.87910442298972	-6.650780536224871	-29.61896882590672	0.1335194544734134	0.002330354096027736	6.440805813777531	0	0	-23.2497295355563	7.231845484425321	-0.09590134821351015	0	-10.06441764811849	0	68.00549122538317	44.83653335324956	0	0	0	-10.06441764811849	0	68.00549122538317	44.83653335324956	0	0
9.269999999999847	340.2029333976145	97.31991571757592	-103.2692283770025	0	0.9399999999999999	0	3.928790042322451	1.836576271510035	-26.67388281394694	0.08791859980923493	0.001534469040414408	5.665927735004064	0	0	24.39130957344681	-6.612962250042733	-30.16794883071386	0.1392223953631263	0.00242988919159984	6.174432761186524	0	0	-23.08091567552389	7.014754491270358	-0.07716379714491492	0	-10.06695071012774	0	68.01256932091705	44.83698821800397	0	0	0	-10.06695071012774	0	68.01256932091705	44.83698821800397	0	0
9.279999999999847	344.0414091405432	97.239138631104	-106.7727332618738	0	0.9399999999999999	0	3.409205526985937	2.168472870675214	-26.71714267235146	0.09741374535449052	0.00170019059313519	5.765022511448803	0	0	23.84075195588078	-6.962629511271755	-30.38247555213975	0.1450452924942183	0.002531517918542327	5.846509395808885	0	0	-23.0032550060125	7.159442392310008	0.1659580273889868	0	-10.10002623471606	0	68.10474880435645	44.84285634370744	0	0	0	-10.10002623471606	0	68.10474880435645	44.84285634370744	0	0
9.289999999999846	344.3018943409982	97.11227672444502	-106.7603215029928	0	0.9399999999999999	0	2.977135926047961	2.02016846285313	-26.7516738363407	0.1101173116183039	0.001921909651184008	5.806735517315759	0	0	23.41398540630495	-6.867004998332041	-30.63048685438266	0.1461336345698536	0.002550513071150153	5.302402750691579	0	0	-22.82867985311035	6.890141793795096	0.2429598042165781	0	-10.10164300688043	0	68.10923344547999	44.84313745257357	0	0	0	-10.10164300688043	0	68.10923344547999	44.84313745257357	0	0
9.299999999999846	344.5961115859608	96.97339223050921	-106.8277604327208	0	0.9399999999999999	0	2.546765900053242	1.846539339279866	-26.84079501973574	0.1329016460637368	0.002319571305132369	5.777453850903121	0	0	23.00594218965152	-6.738069169502258	-30.83458069484418	0.1373974108357349	0.002398037202798908	4.662322264784341	0	0	-22.65475946356099	6.60130547942697	0.3359294486594616	0	-10.10067108592503	0	68.10655682451514	44.84297454634533	0	0	0	-10.10067108592503	0	68.10655682451514	44.84297454634533	0	0
9.309999999999846	344.9640191204236	96.79047690178525	-107.0094730088468	0	0.9399999999999999	0	2.089654744311068	1.633605993898663	-26.94865637969827	0.1711703597850834	0.002987486360072998	5.666940733173817	0	0	22.5671745027608	-6.541072516634785	-30.89936696170077	0.1302700686888244	0.002273641615419158	4.030641395198326	0	0	-22.52733002571523	6.322152693708615	0.4352963044455228	0	-10.10290598843854	0	68.11273325547151	44.84335893130823	0	0	0	-10.10290598843854	0	68.11273325547151	44.84335893130823	0	0
9.319999999999846	345.3875129490879	96.58898829124175	-107.252699098181	0	0.9399999999999999	0	1.633373775712318	1.373521828953923	-27.10637626515074	0.2485952840259846	0.004338806211183896	5.494437362215606	0	0	22.09474713472418	-6.30125219914178	-30.7911736374325	0.1270487291242564	0.002217418633692687	3.517528694613785	0	0	-22.41027622515197	6.065871917172033	0.5078178930492555	0	-10.10663381126423	0	68.12291635503283	44.84397741856043	0	0	0	-10.10663381126423	0	68.12291635503283	44.84397741856043	0	0
9.329999999999846	351.1464864790922	96.36555070988167	-112.8174253006461	0	0.9399999999999999	0	1.01715496361713	1.605036847187022	-27.32361854832185	0.4814831300413289	0.00840346591202921	5.382156393946898	0	0	21.36783578952002	-6.54948700126202	-30.37883055242282	0.1236542666102462	0.002158174086487683	3.132690314821113	0	0	-22.52864830942764	6.337116476647996	0.7924390825217116	0	-10.15291232587446	0	68.2498392355896	44.85171314846355	0	0	0	-10.15291232587446	0	68.2498392355896	44.85171314846355	0	0
9.339999999999845	351.3242914630603	96.18877359247448	-112.7720851734205	0	0.9399999999999999	0	0.892913238783014	1.075112654401826	-27.67076335781098	1.215876002464076	0.02122103953898482	5.394915881711897	0	0	20.92151761583363	-6.217556190672196	-30.0165506420412	0.1259969433745293	0.002199061509334391	2.711303229572786	0	0	-22.31867817733126	6.10823075589641	0.7896169275318341	0	-10.15784640504392	0	68.26320649136504	44.85249927087555	0	0	0	-10.15784640504392	0	68.26320649136504	44.85249927087555	0	0
9.349999999999845	351.5894152338318	95.86823340812406	-112.7003550673985	0	0.9399999999999999	0	0.8272616988116475	0.3272740643033001	-28.19072852979332	2.463438081353313	0.04299510543862724	5.56082568623247	0	0	20.35801569033245	-5.783021165734173	-29.43795247396146	0.134417935505384	0.002346035548302339	2.306906863607794	0	0	-22.26426580181733	5.899246317364624	0.6350365710043315	0	-10.16846927945362	0	68.29207882582239	44.85420355568387	0	0	0	-10.16846927945362	0	68.29207882582239	44.85420355568387	0	0
9.359999999999845	351.8453231037075	95.56810594312219	-112.5910044954434	0	0.9399999999999999	0	0.8739584478399702	-0.4696333726423264	-28.73804507000184	3.929047856730405	0.06857482156837202	5.688008987732101	0	0	19.83380848154508	-5.42431200265433	-28.80115684727125	0.1470906032238969	0.002567215325001588	1.772291770228763	0	0	-22.17604439512063	5.731383872383238	0.497275615310105	0	-10.17533568927004	0	68.3106544315589	44.85528803042747	0	0	0	-10.17533568927004	0	68.3106544315589	44.85528803042747	0	0
9.369999999999845	352.1194372279938	95.25981298722809	-112.4443074943002	0	0.9399999999999999	0	0.9056645250508998	-1.363863212204149	-29.29513401608032	5.496430525596756	0.09593080977878585	5.642606716775966	0	0	19.35751583806844	-5.019638263519603	-28.14774712636805	0.1645039611215753	0.002871135754144233	1.199324826178963	0	0	-22.08469001583649	5.599992803520978	0.3256395594453323	0	-10.181435714984	0	68.32718439870477	44.85625455256085	0	0	0	-10.181435714984	0	68.32718439870477	44.85625455256085	0	0
9.379999999999844	352.4032552643422	94.95569774092729	-112.2711797399961	0	0.9399999999999999	0	0.9421215721895325	-2.318985219555147	-29.89136793333323	7.071114988342936	0.1234142383337047	5.398072143464258	0	0	18.90206598163417	-4.606953458517761	-27.50285665221491	0.1929354797682881	0.003367359365871533	0.6345830337669898	0	0	-22.00818718000766	5.484339163229948	0.1338013006737878	0	-10.18716433069158	0	68.34271764616692	44.85716248922905	0	0	0	-10.18716433069158	0	68.34271764616692	44.85716248922905	0	0
9.389999999999844	352.7244105505047	94.63838302160542	-112.0752476328199	0	0.9399999999999999	0	0.9835172197084385	-3.429431813325131	-30.5744480632707	8.920873286641543	0.1556986110051028	5.101149432633306	0	0	18.35828507670163	-4.084341420443516	-26.81932345109579	0.2412455648339631	0.004210529412186104	0.2073369198921072	0	0	-21.90292425814222	5.434399403804847	-0.08253745968550043	0	-10.19142531038497	0	68.35427071708627	44.85783689405145	0	0	0	-10.19142531038497	0	68.35427071708627	44.85783689405145	0	0
9.399999999999844	353.0712786666215	94.35168645811468	-111.8953999589668	0	0.9399999999999999	0	1.079234756667955	-4.63119498821366	-31.22550224973769	10.83344982807477	0.1890793688495185	4.489103665248084	0	0	17.84765240530838	-3.58378739366721	-26.17661372982024	0.3203914925284801	0.00559188644000079	-0.1827870106261284	0	0	-21.813590143353	5.395781626149732	-0.2770481235836563	0	-10.19590228019911	0	68.36642325029976	44.85854730559377	0	0	0	-10.19590228019911	0	68.36642325029976	44.85854730559377	0	0
9.409999999999844	353.4748207451673	94.05848686565517	-111.7191639626206	0	0.9399999999999999	0	1.187309050653905	-5.970189504457279	-31.88091787137358	12.93916463657472	0.2258310253658444	3.60922369124457	0	0	17.34010472551823	-3.138287050067549	-25.63176368962494	0.4884311864202478	0.008524732372455541	-0.5829793903605893	0	0	-21.71213573639404	5.392021662936949	-0.4796975362024322	0	-10.22223172567728	0	68.4305140039683	44.86167657777312	0	0	0	-10.22223172567728	0	68.4305140039683	44.86167657777312	0	0
